<svg width="400" height="400" viewBox="0 0 400 400" fill="none" xmlns="http://www.w3.org/2000/svg">
<g clip-path="url(#clip0_5745_51)">
<path d="M200 14C298.593 14 386 88.7348 386 183V386H14V183C14 89.6879 101.46 14 200 14Z" stroke="white" stroke-width="28"/>
<path d="M200 14C298.593 14 386 88.7348 386 183V386H14V183C14 89.6879 101.46 14 200 14Z" stroke="white" stroke-width="28"/>
<path d="M225.293 170.928H257.117V276.656H291.949V302H225.293V170.928Z" fill="white"/>
<path d="M170.555 170.928C176.699 170.928 182.171 172.368 186.971 175.248C191.771 178.032 195.515 181.92 198.203 186.912C200.891 191.808 202.235 197.328 202.235 203.472V205.344C202.235 211.488 200.891 217.056 198.203 222.048C195.515 227.04 191.771 230.976 186.971 233.856C182.171 236.64 176.699 238.032 170.555 238.032H146.795V302H114.971V170.928H170.555ZM146.795 214.848H159.899C163.259 214.848 165.755 213.984 167.387 212.256C169.115 210.528 169.979 208.176 169.979 205.2V204.048C169.979 200.976 169.115 198.624 167.387 196.992C165.755 195.264 163.259 194.4 159.899 194.4H146.795V214.848Z" fill="white"/>
</g>
<defs>
<clipPath id="clip0_5745_51">
<rect width="400" height="400" fill="white"/>
</clipPath>
</defs>
</svg>
